<svg width="46" height="46" viewBox="0 0 46 46" fill="none" xmlns="http://www.w3.org/2000/svg">
<g clip-path="url(#clip0_4_4)">
<path d="M37.3889 15.4198C40.2258 12.0427 38.509 7.27678 38.434 7.07737C38.3661 6.88885 38.2416 6.72588 38.0777 6.61068C33.7148 3.48951 30.9741 5.10454 30.8609 5.17243C30.704 5.26777 30.5767 5.40487 30.4932 5.56841C21.1085 23.8796 27.8175 35.7223 30.0223 39.6156C30.192 39.9154 30.3334 40.1615 30.4324 40.3566C30.5454 40.5793 30.7384 40.7511 30.9726 40.8375C31.1084 40.8884 34.3498 42.0537 38.2742 39.2069C38.4459 39.083 38.5737 38.9076 38.6391 38.7063C38.6844 38.5648 39.7252 35.2188 37.3041 31.2477C37.2234 31.1115 37.1108 30.997 36.9761 30.914C36.8413 30.831 36.6884 30.7819 36.5305 30.7711C34.6609 30.624 32.3501 30.1489 31.6543 29.6426C29.5952 23.6435 31.1254 17.6133 31.7575 16.8114C32.1111 16.3589 34.4502 15.8667 36.6634 15.7776C36.8026 15.7719 36.9391 15.7371 37.0641 15.6755C37.189 15.6139 37.2997 15.5268 37.3889 15.4198Z" fill="black"/>
<path d="M21 23.5L5 23.5" stroke="black" stroke-width="2" stroke-linecap="round"/>
<path d="M21 16.5L12 16.5" stroke="black" stroke-width="2" stroke-linecap="round"/>
<path d="M21 30.5L12 30.5" stroke="black" stroke-width="2" stroke-linecap="round"/>
</g>
<defs>
<clipPath id="clip0_4_4">
<rect width="46" height="46" fill="white"/>
</clipPath>
</defs>
</svg>
